<mxfile host="Electron" agent="Mozilla/5.0 (Windows NT 10.0; Win64; x64) AppleWebKit/537.36 (KHTML, like Gecko) draw.io/27.0.9 Chrome/134.0.6998.205 Electron/35.4.0 Safari/537.36" version="27.0.9">
  <diagram name="Page-1" id="gS-d7NndxnnHwtYvrcVP">
    <mxGraphModel dx="864" dy="510" grid="1" gridSize="10" guides="1" tooltips="1" connect="1" arrows="1" fold="1" page="1" pageScale="1" pageWidth="850" pageHeight="1100" math="0" shadow="0">
      <root>
        <mxCell id="0" />
        <mxCell id="1" parent="0" />
        <mxCell id="awIvweTJHD7oYOOWKpMV-43" style="edgeStyle=orthogonalEdgeStyle;rounded=0;orthogonalLoop=1;jettySize=auto;html=1;entryX=0.5;entryY=0;entryDx=0;entryDy=0;curved=1;exitX=0.5;exitY=1;exitDx=0;exitDy=0;" edge="1" parent="1" source="awIvweTJHD7oYOOWKpMV-1" target="awIvweTJHD7oYOOWKpMV-39">
          <mxGeometry relative="1" as="geometry" />
        </mxCell>
        <mxCell id="awIvweTJHD7oYOOWKpMV-44" style="edgeStyle=orthogonalEdgeStyle;rounded=0;orthogonalLoop=1;jettySize=auto;html=1;entryX=0.5;entryY=0;entryDx=0;entryDy=0;curved=1;" edge="1" parent="1" source="awIvweTJHD7oYOOWKpMV-1" target="awIvweTJHD7oYOOWKpMV-40">
          <mxGeometry relative="1" as="geometry" />
        </mxCell>
        <mxCell id="awIvweTJHD7oYOOWKpMV-45" style="edgeStyle=orthogonalEdgeStyle;rounded=0;orthogonalLoop=1;jettySize=auto;html=1;entryX=0.5;entryY=0;entryDx=0;entryDy=0;curved=1;exitX=0.5;exitY=1;exitDx=0;exitDy=0;" edge="1" parent="1" source="awIvweTJHD7oYOOWKpMV-1" target="awIvweTJHD7oYOOWKpMV-42">
          <mxGeometry relative="1" as="geometry" />
        </mxCell>
        <mxCell id="awIvweTJHD7oYOOWKpMV-46" style="edgeStyle=orthogonalEdgeStyle;rounded=0;orthogonalLoop=1;jettySize=auto;html=1;exitX=0.5;exitY=1;exitDx=0;exitDy=0;entryX=0.5;entryY=0;entryDx=0;entryDy=0;curved=1;" edge="1" parent="1" source="awIvweTJHD7oYOOWKpMV-1" target="awIvweTJHD7oYOOWKpMV-41">
          <mxGeometry relative="1" as="geometry" />
        </mxCell>
        <mxCell id="awIvweTJHD7oYOOWKpMV-48" value="ESD" style="edgeLabel;html=1;align=center;verticalAlign=middle;resizable=0;points=[];" vertex="1" connectable="0" parent="awIvweTJHD7oYOOWKpMV-46">
          <mxGeometry x="-0.8264" y="3" relative="1" as="geometry">
            <mxPoint x="-3" as="offset" />
          </mxGeometry>
        </mxCell>
        <mxCell id="awIvweTJHD7oYOOWKpMV-1" value="&lt;font style=&quot;color: rgb(0, 0, 0);&quot; face=&quot;Verdana&quot;&gt;MCU&lt;/font&gt;" style="rounded=1;whiteSpace=wrap;html=1;fillColor=#d5e8d4;strokeColor=#82b366;" vertex="1" parent="1">
          <mxGeometry x="320" y="400" width="40" height="40" as="geometry" />
        </mxCell>
        <mxCell id="awIvweTJHD7oYOOWKpMV-21" style="edgeStyle=orthogonalEdgeStyle;rounded=0;orthogonalLoop=1;jettySize=auto;html=1;exitX=0;exitY=0.5;exitDx=0;exitDy=0;entryX=1;entryY=0.5;entryDx=0;entryDy=0;endArrow=classicThin;endFill=1;" edge="1" parent="1" source="awIvweTJHD7oYOOWKpMV-2" target="awIvweTJHD7oYOOWKpMV-1">
          <mxGeometry relative="1" as="geometry" />
        </mxCell>
        <mxCell id="awIvweTJHD7oYOOWKpMV-23" value="UART/SPI" style="edgeLabel;html=1;align=center;verticalAlign=middle;resizable=0;points=[];" vertex="1" connectable="0" parent="awIvweTJHD7oYOOWKpMV-21">
          <mxGeometry x="0.1106" y="1" relative="1" as="geometry">
            <mxPoint x="27" y="-1" as="offset" />
          </mxGeometry>
        </mxCell>
        <mxCell id="awIvweTJHD7oYOOWKpMV-2" value="&lt;font style=&quot;color: rgb(0, 0, 0);&quot; face=&quot;Verdana&quot;&gt;Motor Driver&lt;/font&gt;" style="rounded=1;whiteSpace=wrap;html=1;fillColor=#d5e8d4;strokeColor=#82b366;" vertex="1" parent="1">
          <mxGeometry x="480" y="400" width="60" height="40" as="geometry" />
        </mxCell>
        <mxCell id="awIvweTJHD7oYOOWKpMV-24" style="edgeStyle=orthogonalEdgeStyle;rounded=0;orthogonalLoop=1;jettySize=auto;html=1;exitX=0;exitY=0.5;exitDx=0;exitDy=0;entryX=1;entryY=0.5;entryDx=0;entryDy=0;curved=1;" edge="1" parent="1" source="awIvweTJHD7oYOOWKpMV-3" target="awIvweTJHD7oYOOWKpMV-1">
          <mxGeometry relative="1" as="geometry" />
        </mxCell>
        <mxCell id="awIvweTJHD7oYOOWKpMV-25" value="SPI/I2C" style="edgeLabel;html=1;align=center;verticalAlign=middle;resizable=0;points=[];" vertex="1" connectable="0" parent="awIvweTJHD7oYOOWKpMV-24">
          <mxGeometry x="-0.5553" y="-6" relative="1" as="geometry">
            <mxPoint x="10" y="6" as="offset" />
          </mxGeometry>
        </mxCell>
        <mxCell id="awIvweTJHD7oYOOWKpMV-3" value="&lt;font style=&quot;color: rgb(0, 0, 0);&quot; face=&quot;Verdana&quot;&gt;Position Sensor&lt;/font&gt;" style="rounded=1;whiteSpace=wrap;html=1;fillColor=#d5e8d4;strokeColor=#82b366;" vertex="1" parent="1">
          <mxGeometry x="480" y="460" width="60" height="40" as="geometry" />
        </mxCell>
        <mxCell id="awIvweTJHD7oYOOWKpMV-9" style="edgeStyle=orthogonalEdgeStyle;rounded=0;orthogonalLoop=1;jettySize=auto;html=1;exitX=1;exitY=0.5;exitDx=0;exitDy=0;entryX=0;entryY=0.5;entryDx=0;entryDy=0;curved=1;startArrow=classicThin;startFill=1;endArrow=classicThin;endFill=1;" edge="1" parent="1" source="awIvweTJHD7oYOOWKpMV-4" target="awIvweTJHD7oYOOWKpMV-1">
          <mxGeometry relative="1" as="geometry" />
        </mxCell>
        <mxCell id="awIvweTJHD7oYOOWKpMV-17" value="CAN/SPI" style="edgeLabel;html=1;align=center;verticalAlign=middle;resizable=0;points=[];" vertex="1" connectable="0" parent="awIvweTJHD7oYOOWKpMV-9">
          <mxGeometry x="-0.5127" y="5" relative="1" as="geometry">
            <mxPoint x="6" as="offset" />
          </mxGeometry>
        </mxCell>
        <mxCell id="awIvweTJHD7oYOOWKpMV-4" value="&lt;font style=&quot;color: rgb(0, 0, 0);&quot; face=&quot;Verdana&quot;&gt;CAN&lt;/font&gt;&lt;div&gt;&lt;font style=&quot;color: rgb(0, 0, 0);&quot; face=&quot;Verdana&quot;&gt;TX/RX&lt;/font&gt;&lt;/div&gt;" style="rounded=1;whiteSpace=wrap;html=1;fillColor=#d5e8d4;strokeColor=#82b366;" vertex="1" parent="1">
          <mxGeometry x="140" y="460" width="60" height="40" as="geometry" />
        </mxCell>
        <mxCell id="awIvweTJHD7oYOOWKpMV-8" style="edgeStyle=orthogonalEdgeStyle;rounded=0;orthogonalLoop=1;jettySize=auto;html=1;entryX=0;entryY=0.5;entryDx=0;entryDy=0;curved=1;endArrow=classicThin;endFill=1;startArrow=classicThin;startFill=1;" edge="1" parent="1" source="awIvweTJHD7oYOOWKpMV-5" target="awIvweTJHD7oYOOWKpMV-1">
          <mxGeometry relative="1" as="geometry" />
        </mxCell>
        <mxCell id="awIvweTJHD7oYOOWKpMV-14" value="JTAG" style="edgeLabel;html=1;align=center;verticalAlign=middle;resizable=0;points=[];" vertex="1" connectable="0" parent="awIvweTJHD7oYOOWKpMV-8">
          <mxGeometry x="-0.3764" relative="1" as="geometry">
            <mxPoint as="offset" />
          </mxGeometry>
        </mxCell>
        <mxCell id="awIvweTJHD7oYOOWKpMV-5" value="&lt;font face=&quot;Verdana&quot; color=&quot;#000000&quot;&gt;Debug&lt;/font&gt;&lt;div&gt;&lt;font face=&quot;Verdana&quot; color=&quot;#000000&quot;&gt;Port&lt;/font&gt;&lt;/div&gt;" style="rounded=1;whiteSpace=wrap;html=1;fillColor=#d5e8d4;strokeColor=#82b366;" vertex="1" parent="1">
          <mxGeometry x="140" y="400" width="60" height="40" as="geometry" />
        </mxCell>
        <mxCell id="awIvweTJHD7oYOOWKpMV-7" style="edgeStyle=orthogonalEdgeStyle;rounded=0;orthogonalLoop=1;jettySize=auto;html=1;exitX=1;exitY=0.5;exitDx=0;exitDy=0;entryX=0;entryY=0.5;entryDx=0;entryDy=0;curved=1;startArrow=classicThin;startFill=1;endArrow=classicThin;endFill=1;" edge="1" parent="1" source="awIvweTJHD7oYOOWKpMV-6" target="awIvweTJHD7oYOOWKpMV-1">
          <mxGeometry relative="1" as="geometry" />
        </mxCell>
        <mxCell id="awIvweTJHD7oYOOWKpMV-15" value="UART" style="edgeLabel;html=1;align=center;verticalAlign=middle;resizable=0;points=[];" vertex="1" connectable="0" parent="awIvweTJHD7oYOOWKpMV-7">
          <mxGeometry x="-0.5844" y="-7" relative="1" as="geometry">
            <mxPoint x="13" y="3" as="offset" />
          </mxGeometry>
        </mxCell>
        <mxCell id="awIvweTJHD7oYOOWKpMV-11" style="edgeStyle=orthogonalEdgeStyle;rounded=0;orthogonalLoop=1;jettySize=auto;html=1;exitX=0;exitY=0.5;exitDx=0;exitDy=0;entryX=1;entryY=0.5;entryDx=0;entryDy=0;endArrow=classicThin;endFill=1;startArrow=classicThin;startFill=1;curved=1;" edge="1" parent="1" source="awIvweTJHD7oYOOWKpMV-6" target="awIvweTJHD7oYOOWKpMV-10">
          <mxGeometry relative="1" as="geometry" />
        </mxCell>
        <mxCell id="awIvweTJHD7oYOOWKpMV-18" value="ESD" style="edgeLabel;html=1;align=center;verticalAlign=middle;resizable=0;points=[];" vertex="1" connectable="0" parent="awIvweTJHD7oYOOWKpMV-11">
          <mxGeometry x="-0.0142" y="1" relative="1" as="geometry">
            <mxPoint as="offset" />
          </mxGeometry>
        </mxCell>
        <mxCell id="awIvweTJHD7oYOOWKpMV-6" value="&lt;font face=&quot;Verdana&quot; color=&quot;#000000&quot;&gt;UART Port&lt;/font&gt;" style="rounded=1;whiteSpace=wrap;html=1;fillColor=#d5e8d4;strokeColor=#82b366;" vertex="1" parent="1">
          <mxGeometry x="140" y="340" width="60" height="40" as="geometry" />
        </mxCell>
        <mxCell id="awIvweTJHD7oYOOWKpMV-10" value="&lt;font face=&quot;Verdana&quot; color=&quot;#000000&quot;&gt;USB-C&lt;/font&gt;" style="rounded=1;whiteSpace=wrap;html=1;fillColor=#d5e8d4;strokeColor=#82b366;" vertex="1" parent="1">
          <mxGeometry y="340" width="60" height="40" as="geometry" />
        </mxCell>
        <mxCell id="awIvweTJHD7oYOOWKpMV-20" style="edgeStyle=orthogonalEdgeStyle;rounded=0;orthogonalLoop=1;jettySize=auto;html=1;entryX=1;entryY=0.5;entryDx=0;entryDy=0;endArrow=classicThin;endFill=1;" edge="1" parent="1" source="awIvweTJHD7oYOOWKpMV-19" target="awIvweTJHD7oYOOWKpMV-2">
          <mxGeometry relative="1" as="geometry" />
        </mxCell>
        <mxCell id="awIvweTJHD7oYOOWKpMV-19" value="&lt;font style=&quot;color: rgb(0, 0, 0);&quot; face=&quot;Verdana&quot;&gt;Motor&lt;/font&gt;" style="rounded=1;whiteSpace=wrap;html=1;fillColor=#d5e8d4;strokeColor=#82b366;" vertex="1" parent="1">
          <mxGeometry x="580" y="400" width="60" height="40" as="geometry" />
        </mxCell>
        <mxCell id="awIvweTJHD7oYOOWKpMV-27" style="edgeStyle=orthogonalEdgeStyle;rounded=0;orthogonalLoop=1;jettySize=auto;html=1;exitX=0;exitY=0.5;exitDx=0;exitDy=0;entryX=1;entryY=0.5;entryDx=0;entryDy=0;curved=1;" edge="1" parent="1" source="awIvweTJHD7oYOOWKpMV-26" target="awIvweTJHD7oYOOWKpMV-1">
          <mxGeometry relative="1" as="geometry" />
        </mxCell>
        <mxCell id="awIvweTJHD7oYOOWKpMV-28" value="I2C" style="edgeLabel;html=1;align=center;verticalAlign=middle;resizable=0;points=[];" vertex="1" connectable="0" parent="awIvweTJHD7oYOOWKpMV-27">
          <mxGeometry x="-0.5778" y="4" relative="1" as="geometry">
            <mxPoint x="-2" y="6" as="offset" />
          </mxGeometry>
        </mxCell>
        <mxCell id="awIvweTJHD7oYOOWKpMV-26" value="&lt;font style=&quot;color: rgb(0, 0, 0);&quot; face=&quot;Verdana&quot;&gt;Temp/Humidty&lt;/font&gt;" style="rounded=1;whiteSpace=wrap;html=1;fillColor=#d5e8d4;strokeColor=#82b366;" vertex="1" parent="1">
          <mxGeometry x="430" y="340" width="110" height="40" as="geometry" />
        </mxCell>
        <mxCell id="awIvweTJHD7oYOOWKpMV-32" style="edgeStyle=orthogonalEdgeStyle;rounded=0;orthogonalLoop=1;jettySize=auto;html=1;entryX=0;entryY=0.5;entryDx=0;entryDy=0;endArrow=classicThin;endFill=1;" edge="1" parent="1" source="awIvweTJHD7oYOOWKpMV-29" target="awIvweTJHD7oYOOWKpMV-30">
          <mxGeometry relative="1" as="geometry" />
        </mxCell>
        <mxCell id="awIvweTJHD7oYOOWKpMV-33" value="Protection&lt;div&gt;Circuit&lt;/div&gt;" style="edgeLabel;html=1;align=center;verticalAlign=middle;resizable=0;points=[];" vertex="1" connectable="0" parent="awIvweTJHD7oYOOWKpMV-32">
          <mxGeometry x="-0.0776" y="-1" relative="1" as="geometry">
            <mxPoint as="offset" />
          </mxGeometry>
        </mxCell>
        <mxCell id="awIvweTJHD7oYOOWKpMV-36" style="edgeStyle=orthogonalEdgeStyle;rounded=0;orthogonalLoop=1;jettySize=auto;html=1;entryX=0.5;entryY=0;entryDx=0;entryDy=0;curved=1;endArrow=classicThin;endFill=1;" edge="1" parent="1" source="awIvweTJHD7oYOOWKpMV-29" target="awIvweTJHD7oYOOWKpMV-35">
          <mxGeometry relative="1" as="geometry" />
        </mxCell>
        <mxCell id="awIvweTJHD7oYOOWKpMV-37" value="LDO" style="edgeLabel;html=1;align=center;verticalAlign=middle;resizable=0;points=[];" vertex="1" connectable="0" parent="awIvweTJHD7oYOOWKpMV-36">
          <mxGeometry x="-0.175" relative="1" as="geometry">
            <mxPoint as="offset" />
          </mxGeometry>
        </mxCell>
        <mxCell id="awIvweTJHD7oYOOWKpMV-29" value="&lt;font style=&quot;color: rgb(0, 0, 0);&quot; face=&quot;Verdana&quot;&gt;48V&lt;/font&gt;" style="rounded=1;whiteSpace=wrap;html=1;fillColor=#d5e8d4;strokeColor=#82b366;" vertex="1" parent="1">
          <mxGeometry x="280" y="240" width="40" height="40" as="geometry" />
        </mxCell>
        <mxCell id="awIvweTJHD7oYOOWKpMV-34" style="edgeStyle=orthogonalEdgeStyle;rounded=0;orthogonalLoop=1;jettySize=auto;html=1;exitX=1;exitY=0.5;exitDx=0;exitDy=0;entryX=1;entryY=0;entryDx=0;entryDy=0;curved=1;" edge="1" parent="1" source="awIvweTJHD7oYOOWKpMV-30" target="awIvweTJHD7oYOOWKpMV-2">
          <mxGeometry relative="1" as="geometry">
            <Array as="points">
              <mxPoint x="620" y="260" />
              <mxPoint x="620" y="400" />
            </Array>
          </mxGeometry>
        </mxCell>
        <mxCell id="awIvweTJHD7oYOOWKpMV-30" value="&lt;font style=&quot;color: rgb(0, 0, 0);&quot; face=&quot;Verdana&quot;&gt;Power Sensor&lt;/font&gt;" style="rounded=1;whiteSpace=wrap;html=1;fillColor=#d5e8d4;strokeColor=#82b366;" vertex="1" parent="1">
          <mxGeometry x="400" y="240" width="60" height="40" as="geometry" />
        </mxCell>
        <mxCell id="awIvweTJHD7oYOOWKpMV-38" style="edgeStyle=orthogonalEdgeStyle;rounded=0;orthogonalLoop=1;jettySize=auto;html=1;exitX=0.5;exitY=1;exitDx=0;exitDy=0;entryX=0.5;entryY=0;entryDx=0;entryDy=0;" edge="1" parent="1" source="awIvweTJHD7oYOOWKpMV-35" target="awIvweTJHD7oYOOWKpMV-1">
          <mxGeometry relative="1" as="geometry" />
        </mxCell>
        <mxCell id="awIvweTJHD7oYOOWKpMV-35" value="&lt;font style=&quot;color: rgb(0, 0, 0);&quot; face=&quot;Verdana&quot;&gt;3.3V&lt;/font&gt;" style="rounded=1;whiteSpace=wrap;html=1;fillColor=#d5e8d4;strokeColor=#82b366;" vertex="1" parent="1">
          <mxGeometry x="320" y="320" width="40" height="40" as="geometry" />
        </mxCell>
        <mxCell id="awIvweTJHD7oYOOWKpMV-39" value="&lt;font face=&quot;Verdana&quot; color=&quot;#000000&quot;&gt;UART&lt;/font&gt;" style="rounded=1;whiteSpace=wrap;html=1;fillColor=#d5e8d4;strokeColor=#82b366;" vertex="1" parent="1">
          <mxGeometry x="210" y="560" width="60" height="40" as="geometry" />
        </mxCell>
        <mxCell id="awIvweTJHD7oYOOWKpMV-40" value="&lt;font face=&quot;Verdana&quot; color=&quot;#000000&quot;&gt;SPI&lt;/font&gt;" style="rounded=1;whiteSpace=wrap;html=1;fillColor=#d5e8d4;strokeColor=#82b366;" vertex="1" parent="1">
          <mxGeometry x="290" y="560" width="60" height="40" as="geometry" />
        </mxCell>
        <mxCell id="awIvweTJHD7oYOOWKpMV-41" value="&lt;font face=&quot;Verdana&quot; color=&quot;#000000&quot;&gt;5V&lt;/font&gt;" style="rounded=1;whiteSpace=wrap;html=1;fillColor=#d5e8d4;strokeColor=#82b366;" vertex="1" parent="1">
          <mxGeometry x="430" y="560" width="40" height="40" as="geometry" />
        </mxCell>
        <mxCell id="awIvweTJHD7oYOOWKpMV-42" value="&lt;font face=&quot;Verdana&quot; color=&quot;#000000&quot;&gt;I2C&lt;/font&gt;" style="rounded=1;whiteSpace=wrap;html=1;fillColor=#d5e8d4;strokeColor=#82b366;" vertex="1" parent="1">
          <mxGeometry x="370" y="560" width="40" height="40" as="geometry" />
        </mxCell>
      </root>
    </mxGraphModel>
  </diagram>
</mxfile>
